<svg width="1091" height="2248" xmlns="http://www.w3.org/2000/svg" xmlns:xlink="http://www.w3.org/1999/xlink" xml:space="preserve" overflow="hidden"><g transform="translate(-1740 -205)"><path d="M1742.5 388.5C1742.5 288.537 1823.54 207.5 1923.5 207.5L2647.49 207.5C2747.45 207.5 2828.49 288.537 2828.49 388.5L2828.49 2269.5C2828.49 2369.46 2747.45 2450.5 2647.49 2450.5L1923.5 2450.5C1823.54 2450.5 1742.5 2369.46 1742.5 2269.5Z" stroke="#4C5891" stroke-width="4.58333" stroke-miterlimit="8" fill="#7790DC" fill-rule="evenodd"/><path d="M1771.5 401.837C1771.5 307.21 1848.21 230.5 1942.84 230.5L2628.16 230.5C2722.79 230.5 2799.5 307.21 2799.5 401.837L2799.5 2246.16C2799.5 2340.79 2722.79 2417.5 2628.16 2417.5L1942.84 2417.5C1848.21 2417.5 1771.5 2340.79 1771.5 2246.16Z" stroke="#4C5891" stroke-width="4.58333" stroke-miterlimit="8" fill="#181717" fill-rule="evenodd"/><path d="M2143 318.5C2143 297.237 2160.24 280 2181.5 280L2388.5 280C2409.76 280 2427 297.237 2427 318.5L2427 318.5C2427 339.763 2409.76 357 2388.5 357L2181.5 357C2160.24 357 2143 339.763 2143 318.5Z" stroke="#000000" stroke-width="13.75" stroke-miterlimit="8" fill-rule="evenodd"/></g></svg>
